<svg width="25" height="25" viewBox="0 0 25 25" fill="none" xmlns="http://www.w3.org/2000/svg">
<path d="M12.5 0C19.4036 0 25 5.59644 25 12.5C25 16.3977 23.2149 19.8775 20.4189 22.1699C20.424 22.2053 20.4308 22.2407 20.4355 22.2764L20.2529 22.2998C18.1217 23.9881 15.4301 25 12.5 25C9.5719 25 6.88149 23.99 4.75098 22.3037L4.56348 22.2803C4.56823 22.2434 4.57399 22.2065 4.5791 22.1699C1.78378 19.8775 0 16.3972 0 12.5C0 5.59644 5.59644 0 12.5 0ZM12.4873 17.1113C10.0666 17.0995 7.6619 18.4675 6.80469 21.3193C8.44559 22.3812 10.4 23 12.5 23C14.5969 23 16.5481 22.3822 18.1875 21.3232C17.3178 18.5173 14.9104 17.1233 12.4873 17.1113ZM12.5 2C6.70101 2 2 6.70101 2 12.5C2 15.4363 3.20665 18.0896 5.14941 19.9951C6.4596 16.7355 9.48291 15.0966 12.4971 15.1113C15.5006 15.1261 18.5181 16.7843 19.8379 20.0068C21.7879 18.1005 23 15.4425 23 12.5C23 6.70101 18.299 2 12.5 2ZM12.7422 5.00586C15.2375 5.13214 17.2217 7.19601 17.2217 9.72266L17.2158 9.96484C17.0895 12.46 15.0264 14.4441 12.5 14.4443L12.2568 14.4385C9.84198 14.3162 7.90541 12.3797 7.7832 9.96484L7.77734 9.72266C7.77734 7.11465 9.89199 5 12.5 5L12.7422 5.00586ZM12.5 7C10.9966 7 9.77734 8.21921 9.77734 9.72266C9.77758 11.2259 10.9967 12.4443 12.5 12.4443C14.0031 12.4441 15.2214 11.2258 15.2217 9.72266C15.2217 8.21936 14.0032 7.00023 12.5 7Z" fill="white" fill-opacity="0.75"/>
</svg>
