<svg width="20" height="20" viewBox="0 0 20 20" fill="none" xmlns="http://www.w3.org/2000/svg">
<path d="M15.745 3.61999C14.5983 3.09556 13.3805 2.71333 12.1095 2.5C11.9494 2.77556 11.7716 3.14888 11.6472 3.44223C10.2952 3.24666 8.95295 3.24666 7.61963 3.44223C7.49518 3.14888 7.3085 2.77556 7.15738 2.5C5.87741 2.71333 4.65963 3.09556 3.52097 3.61999C1.21875 7.01554 0.596524 10.3311 0.907634 13.6022C2.43652 14.7132 3.91208 15.3888 5.36187 15.8333C5.71742 15.3533 6.03743 14.8377 6.31298 14.2955C5.78853 14.1 5.29076 13.86 4.81076 13.5755C4.9352 13.4867 5.05965 13.3889 5.17521 13.2911C8.07298 14.6156 11.2116 14.6156 14.0739 13.2911C14.1983 13.3889 14.3139 13.4867 14.4383 13.5755C13.9583 13.86 13.4605 14.1 12.936 14.2955C13.2116 14.8377 13.5316 15.3533 13.8872 15.8333C15.336 15.3888 16.8205 14.7132 18.3414 13.6022C18.7236 9.81558 17.736 6.52668 15.745 3.61999ZM6.71298 11.5844C5.84185 11.5844 5.13074 10.7933 5.13074 9.82442C5.13074 8.85558 5.82408 8.06442 6.71298 8.06442C7.59296 8.06442 8.31293 8.85558 8.29515 9.82442C8.29515 10.7933 7.59296 11.5844 6.71298 11.5844ZM12.5539 11.5844C11.6827 11.5844 10.9707 10.7933 10.9707 9.82442C10.9707 8.85558 11.665 8.06442 12.5539 8.06442C13.4339 8.06442 14.1539 8.85558 14.136 9.82442C14.136 10.7933 13.4428 11.5844 12.5539 11.5844Z" stroke="white" stroke-opacity="0.5" stroke-linejoin="round"/>
</svg>
