<svg width="20" height="20" viewBox="0 0 20 20" fill="none" xmlns="http://www.w3.org/2000/svg">
<path d="M18.3334 9.99999C18.3334 14.6024 14.6025 18.3333 10.0001 18.3333M18.3334 9.99999C18.3334 5.39762 14.6025 1.66666 10.0001 1.66666M18.3334 9.99999H1.66675M10.0001 18.3333C5.39771 18.3333 1.66675 14.6024 1.66675 9.99999M10.0001 18.3333C12.0845 16.0514 13.269 13.09 13.3334 9.99999C13.269 6.91002 12.0845 3.94862 10.0001 1.66666M10.0001 18.3333C7.91568 16.0514 6.73112 13.09 6.66675 9.99999C6.73112 6.91002 7.91568 3.94862 10.0001 1.66666M1.66675 9.99999C1.66675 5.39762 5.39771 1.66666 10.0001 1.66666" stroke="#8F8F8F" stroke-linecap="round" stroke-linejoin="round"/>
</svg>
