<svg width="20" height="20" viewBox="0 0 20 20" fill="none" xmlns="http://www.w3.org/2000/svg">
<path d="M13.3337 6.66669C14.6597 6.66669 15.9315 7.19347 16.8692 8.13115C17.8069 9.06883 18.3337 10.3406 18.3337 11.6667V17.5H15.0003V11.6667C15.0003 11.2247 14.8247 10.8007 14.5122 10.4882C14.1996 10.1756 13.7757 10 13.3337 10C12.8916 10 12.4677 10.1756 12.1551 10.4882C11.8426 10.8007 11.667 11.2247 11.667 11.6667V17.5H8.33366V11.6667C8.33366 10.3406 8.86044 9.06883 9.79813 8.13115C10.7358 7.19347 12.0076 6.66669 13.3337 6.66669Z" stroke="white" stroke-opacity="0.5" stroke-linecap="round" stroke-linejoin="round"/>
<path d="M5.00033 7.50002H1.66699V17.5H5.00033V7.50002Z" stroke="white" stroke-opacity="0.5" stroke-linecap="round" stroke-linejoin="round"/>
<path d="M3.33366 5.00002C4.25413 5.00002 5.00033 4.25383 5.00033 3.33335C5.00033 2.41288 4.25413 1.66669 3.33366 1.66669C2.41318 1.66669 1.66699 2.41288 1.66699 3.33335C1.66699 4.25383 2.41318 5.00002 3.33366 5.00002Z" stroke="white" stroke-opacity="0.5" stroke-linecap="round" stroke-linejoin="round"/>
</svg>
