<svg width="25" height="25" viewBox="0 0 25 25" fill="none" xmlns="http://www.w3.org/2000/svg">
<path d="M9.01953 13.9805C10.1241 13.9805 11.0195 14.8759 11.0195 15.9805V23.001L11.0098 23.2051C10.9142 24.1463 10.1658 24.8946 9.22461 24.9902L9.01953 25.001H2L1.7959 24.9902C0.854442 24.8948 0.10633 24.1465 0.0107422 23.2051L0 23.001V15.9805C0 14.8759 0.895431 13.9805 2 13.9805H9.01953ZM20.6514 13.9805C21.7559 13.9806 22.6514 14.876 22.6514 15.9805V23.001L22.6416 23.2051C22.5461 24.1463 21.7976 24.8945 20.8564 24.9902L20.6514 25.001H13.6318L13.4277 24.9902C12.4863 24.8948 11.7382 24.1465 11.6426 23.2051L11.6318 23.001V15.9805C11.6318 14.8759 12.5273 13.9805 13.6318 13.9805H20.6514ZM2 23.001H9.01953V15.9805H2V23.001ZM13.6318 23.001H20.6514V15.9805H13.6318V23.001ZM17.4541 0.331055C18.2995 -0.228303 19.4488 -0.0680631 20.1045 0.733398L24.5498 6.16699L24.6709 6.33203C25.1927 7.12105 25.0868 8.17379 24.4189 8.84375L24.2686 8.98145L18.5566 2L13.123 6.44531L17.5684 11.8779L23.002 7.43359L24.2686 8.98145L18.835 13.4268L18.6699 13.5479C17.8809 14.0701 16.8283 13.9649 16.1582 13.2969L16.0205 13.1455L11.5752 7.71191C10.8758 6.85701 11.0016 5.59694 11.8564 4.89746L17.29 0.452148L17.4541 0.331055ZM9.01953 2.34766C10.1241 2.34766 11.0195 3.24309 11.0195 4.34766V11.3682L11.0098 11.5723C10.9143 12.5136 10.1659 13.2617 9.22461 13.3574L9.01953 13.3682H2L1.7959 13.3574C0.854389 13.262 0.106261 12.5138 0.0107422 11.5723L0 11.3682V4.34766C0 3.24309 0.895431 2.34766 2 2.34766H9.01953ZM2 11.3682H9.01953V4.34766H2V11.3682Z" fill="white" fill-opacity="0.75"/>
</svg>
