<svg width="25" height="25" viewBox="0 0 25 25" fill="none" xmlns="http://www.w3.org/2000/svg">
<path d="M14.5846 2.08333H6.2513C5.69877 2.08333 5.16886 2.30283 4.77816 2.69353C4.38746 3.08423 4.16797 3.61413 4.16797 4.16667V20.8333C4.16797 21.3859 4.38746 21.9158 4.77816 22.3065C5.16886 22.6972 5.69877 22.9167 6.2513 22.9167H18.7513C19.3038 22.9167 19.8337 22.6972 20.2244 22.3065C20.6151 21.9158 20.8346 21.3859 20.8346 20.8333V8.33333M14.5846 2.08333L20.8346 8.33333M14.5846 2.08333V8.33333H20.8346M16.668 13.5417H8.33464M16.668 17.7083H8.33464M10.418 9.375H8.33464" stroke="white" stroke-opacity="0.75" stroke-width="2" stroke-linecap="round" stroke-linejoin="round"/>
</svg>
